HIERARCHY
ROOT Hips
{
	OFFSET 0.000000 0.000000 0.000000
	CHANNELS 6 Xposition Yposition Zposition Xrotation Yrotation Zrotation
	JOINT LeftUpLeg_virtual
	{
		OFFSET 0.000000 0.000000 0.000000
		CHANNELS 3 Xrotation Yrotation Zrotation
		JOINT LeftUpLeg
		{
			OFFSET 10.205400 -3.823500 0.155100
			CHANNELS 3 Xrotation Yrotation Zrotation
			JOINT LeftLeg
			{
				OFFSET 0.708757 -12.982077 0.567790
				CHANNELS 3 Xrotation Yrotation Zrotation
				JOINT LeftFoot
				{
					OFFSET -0.708756 -10.717838 -2.184338
					CHANNELS 3 Xrotation Yrotation Zrotation
					JOINT LeftToeBase
					{
						OFFSET 0.108149 -7.191104 7.560241
						CHANNELS 3 Xrotation Yrotation Zrotation
						JOINT LeftToe_End
						{
							OFFSET 0.070230 0.081724 4.490308
							CHANNELS 3 Xrotation Yrotation Zrotation
							End Site
							{
								OFFSET 0 0 0
							}
						}
					}
				}
			}
		}
	}
	JOINT RightUpLeg_virtual
	{
		OFFSET 0.000000 0.000000 0.000000
		CHANNELS 3 Xrotation Yrotation Zrotation
		JOINT RightUpLeg
		{
			OFFSET -10.205400 -3.823500 0.005500
			CHANNELS 3 Xrotation Yrotation Zrotation
			JOINT RightLeg
			{
				OFFSET -0.708756 -12.982134 0.610632
				CHANNELS 3 Xrotation Yrotation Zrotation
				JOINT RightFoot
				{
					OFFSET 0.708754 -10.717769 -1.945823
					CHANNELS 3 Xrotation Yrotation Zrotation
					JOINT RightToeBase
					{
						OFFSET -0.108140 -7.191069 7.372968
						CHANNELS 3 Xrotation Yrotation Zrotation
						JOINT RightToe_End
						{
							OFFSET -0.070227 0.081735 4.479403
							CHANNELS 3 Xrotation Yrotation Zrotation
							End Site
							{
								OFFSET 0 0 0
							}
						}
					}
				}
			}
		}
	}
	JOINT Spine_virtual
	{
		OFFSET 0.000000 0.000000 0.000000
		CHANNELS 3 Xrotation Yrotation Zrotation
		JOINT Spine
		{
			OFFSET 0.000000 6.876099 0.125700
			CHANNELS 3 Xrotation Yrotation Zrotation
			JOINT Spine1
			{
				OFFSET 0.000000 5.730043 0.104720
				CHANNELS 3 Xrotation Yrotation Zrotation
				JOINT Spine1_split
				{
					OFFSET 0.000000 5.730043 0.104720
					CHANNELS 3 Xrotation Yrotation Zrotation
					JOINT Spine2
					{
						OFFSET 0.000000 5.730043 0.104720
						CHANNELS 3 Xrotation Yrotation Zrotation
						JOINT Neck_virtual
						{
							OFFSET 0.000000 0.000000 0.000000
							CHANNELS 3 Xrotation Yrotation Zrotation
							JOINT Neck
							{
								OFFSET 0.000000 10.314075 0.188496
								CHANNELS 3 Xrotation Yrotation Zrotation
								JOINT Head
								{
									OFFSET 0.000000 7.643700 -2.377400
									CHANNELS 3 Xrotation Yrotation Zrotation
									JOINT HeadTop_End
									{
										OFFSET 0.000000 43.788605 -13.619600
										CHANNELS 3 Xrotation Yrotation Zrotation
										End Site
										{
											OFFSET 0 0 0
										}
									}
								}
							}
						}
						JOINT LeftShoulder_virtual
						{
							OFFSET 0.000000 0.000000 0.000000
							CHANNELS 3 Xrotation Yrotation Zrotation
							JOINT LeftShoulder
							{
								OFFSET 2.196100 4.412489 0.087492
								CHANNELS 3 Xrotation Yrotation Zrotation
								JOINT LeftShoulder_split
								{
									OFFSET 2.196100 4.412489 0.087492
									CHANNELS 3 Xrotation Yrotation Zrotation
									JOINT LeftArm
									{
										OFFSET 8.771219 -2.981674 -0.026999
										CHANNELS 3 Xrotation Yrotation Zrotation
										JOINT LeftForeArm
										{
											OFFSET 8.512804 0.000000 -0.000000
											CHANNELS 3 Xrotation Yrotation Zrotation
											JOINT LeftHand
											{
												OFFSET 18.484802 0.000000 -0.000000
												CHANNELS 3 Xrotation Yrotation Zrotation
												End Site
												{
													OFFSET 0 0 0
												}
											}
										}
									}
								}
							}
						}
						JOINT RightShoulder_virtual
						{
							OFFSET 0.000000 0.000000 0.000000
							CHANNELS 3 Xrotation Yrotation Zrotation
							JOINT RightShoulder
							{
								OFFSET -2.196100 4.412496 0.070690
								CHANNELS 3 Xrotation Yrotation Zrotation
								JOINT RightShoulder_split
								{
									OFFSET -2.196100 4.412496 0.070690
									CHANNELS 3 Xrotation Yrotation Zrotation
									JOINT RightArm
									{
										OFFSET -8.771282 -2.981682 -0.094208
										CHANNELS 3 Xrotation Yrotation Zrotation
										JOINT RightForeArm
										{
											OFFSET -8.494598 0.000000 0.000000
											CHANNELS 3 Xrotation Yrotation Zrotation
											JOINT RightHand
											{
												OFFSET -18.483803 0.000000 0.000001
												CHANNELS 3 Xrotation Yrotation Zrotation
												End Site
												{
													OFFSET 0 0 0
												}
											}
										}
									}
								}
							}
						}
					}
				}
			}
		}
	}
}
MOTION
Frames: 4
Frame Time: 0.03333333
1.325736 26.950472 -0.671581 0.000000 0.000000 0.000000 -8.671490 -42.806418 13.625444 -5.400086 28.769020 -5.123472 47.504410 2.496960 5.484041 -32.128243 21.312675 -12.309340 -0.346029 -0.251460 -1.002668 0.000000 0.000000 0.000000 -8.377315 -43.979223 14.456101 -27.155931 16.078834 -47.907790 80.178552 11.005414 -6.866087 -43.624032 -14.681123 24.492515 -0.423745 4.025513 1.193642 0.000000 0.000000 0.000000 -3.682697 -44.799030 15.610546 1.425701 -4.515815 8.595125 -1.175384 -1.544651 5.222515 2.074362 -2.187776 0.856459 0.000000 0.000000 0.000000 -1.143787 -1.820287 4.700300 -10.189541 6.166080 7.482753 -17.081893 39.155699 -4.042146 0.000000 0.000000 0.000000 -1.507490 -1.710832 4.666810 -0.856262 1.792994 12.045229 0.183834 1.967557 0.925408 -35.835472 -30.395312 -44.440523 -7.055177 -81.184762 -4.797393 0.000000 0.000000 0.000000 -1.513117 -1.738474 4.661035 -0.656351 -6.499670 6.825939 1.992763 1.595395 0.783429 136.123484 78.035157 -100.430009 -0.830114 27.381188 0.830371 0.000000 0.000000 0.000000 
1.530903 27.151899 -0.531876 0.000000 0.000000 0.000000 -7.387330 -41.917093 14.620484 -6.165194 27.523970 -6.613926 46.360930 2.467259 5.010689 -31.751507 21.007683 -10.896735 -0.158310 -0.247599 -1.015036 0.000000 0.000000 0.000000 -6.942595 -42.950142 15.520664 -28.203198 15.902933 -47.574624 79.694770 10.595190 -6.922328 -42.690441 -14.595143 24.743451 -1.255415 4.104437 1.264059 0.000000 0.000000 0.000000 -2.247952 -44.111237 16.614239 1.444680 -4.119265 8.405754 -1.122215 -1.347152 5.199917 2.038647 -1.766250 0.622552 0.000000 0.000000 0.000000 -1.032936 -1.587674 4.694620 -9.814330 6.320613 6.383471 -15.916431 38.106817 -5.192466 0.000000 0.000000 0.000000 -1.496117 -1.453862 4.639745 -0.935694 2.205540 11.642075 0.308862 1.768756 0.811625 -35.555591 -30.549162 -43.982713 -9.199499 -84.400415 -6.861305 0.000000 0.000000 0.000000 -1.344763 -1.514005 4.665859 -0.599934 -7.025675 7.379012 1.894630 1.896904 0.303562 137.415743 77.682303 -101.999866 -0.672431 26.427908 0.793667 0.000000 0.000000 0.000000 
1.745115 27.454519 -0.404772 0.000000 0.000000 0.000000 -6.098752 -40.879536 15.510793 -6.857895 26.324382 -7.986437 44.363629 2.562369 4.577298 -30.787972 20.571316 -9.723170 -0.039531 -0.243719 -1.025850 0.000000 0.000000 0.000000 -5.563157 -41.824960 16.464991 -29.790662 15.427488 -46.764929 78.783049 10.117784 -7.059513 -41.349094 -14.017380 24.489239 -1.751069 4.176151 1.405424 0.000000 0.000000 0.000000 -0.915789 -43.201971 17.417379 1.516091 -3.735960 8.264658 -1.032967 -1.126765 5.194913 1.816384 -1.393328 0.467099 0.000000 0.000000 0.000000 -0.834468 -1.335498 4.690613 -9.636378 6.349306 5.319374 -15.044653 36.608912 -6.095809 0.000000 0.000000 0.000000 -1.368383 -1.173321 4.644074 -1.007895 2.578679 11.077931 0.426452 1.738344 0.658243 -34.342041 -30.132647 -43.360718 -18.226479 -87.107882 -15.785795 0.000000 0.000000 0.000000 -1.104768 -1.272115 4.657801 -0.495849 -7.441270 7.551023 1.799693 2.272153 0.013070 138.109690 77.040531 -103.433031 -0.619887 25.077072 0.708547 0.000000 0.000000 0.000000 
1.954924 27.831411 -0.315678 0.000000 0.000000 0.000000 -4.879528 -39.730667 16.209567 -7.504507 25.287193 -9.082335 41.790072 2.789259 4.199305 -29.417126 20.020888 -8.772122 0.043041 -0.239585 -1.011579 0.000000 0.000000 0.000000 -4.310339 -40.666892 17.216655 -31.886506 14.585145 -45.627661 77.469822 9.602735 -7.179578 -39.578501 -12.966926 23.716428 -1.730577 4.272241 1.548671 0.000000 0.000000 0.000000 0.271418 -42.140570 17.963452 1.679509 -3.330555 8.152144 -0.907476 -0.877461 5.172726 1.602814 -1.221648 0.448467 0.000000 0.000000 0.000000 -0.542584 -1.047649 4.644520 -9.612935 6.260626 4.474550 -14.455667 34.905286 -6.789118 0.000000 0.000000 0.000000 -1.122959 -0.876915 4.643713 -1.074541 2.848175 10.466465 0.625496 1.854277 0.574438 -32.691577 -29.371589 -42.850626 -52.062492 -88.670431 -49.535926 0.000000 0.000000 0.000000 -0.809573 -1.005932 4.609009 -0.363643 -7.707956 7.417543 1.716961 2.659129 -0.085338 138.718547 76.053958 -105.144458 -0.660190 23.339303 0.584344 0.000000 0.000000 0.000000 
